<?xml version="1.0" encoding="UTF-8" standalone="no"?>
<!-- Created with Inkscape (http://www.inkscape.org/) -->

<svg
   width="240.00002"
   height="156"
   viewBox="0 0 63.500003 41.275001"
   version="1.1"
   id="svg5"
   xmlns="http://www.w3.org/2000/svg"
   xmlnsSvg="http://www.w3.org/2000/svg">
  <defs
     id="defs2" />
  <g
     id="layer1"
     transform="translate(-0.09198405,-12.715503)" />
  <path
     id="rect992"
     style="opacity:1;fill:#ffb800;fill-opacity:1;stroke-width:27.1224;stop-color:#000000"
     d="M 5.2916667,0 C 2.3600835,0 0,2.1240751 0,4.7625001 0,7.4009249 2.3600835,9.5250002 5.2916667,9.5250002 H 58.208336 c 2.931583,0 5.291667,-2.1240753 5.291667,-4.7625001 C 63.500003,2.1240751 61.139919,0 58.208336,0 Z m 0,15.874999 C 2.3600835,15.874999 0,17.999074 0,20.637499 0,23.275925 2.3600835,25.4 5.2916667,25.4 H 58.208336 c 2.931583,0 5.291667,-2.124075 5.291667,-4.762501 0,-2.638425 -2.360084,-4.7625 -5.291667,-4.7625 z m 0,15.875001 C 2.3600835,31.75 0,33.874075 0,36.5125 0,39.150925 2.3600835,41.275 5.2916667,41.275 H 58.208336 c 2.931583,0 5.291667,-2.124075 5.291667,-4.7625 0,-2.638425 -2.360084,-4.7625 -5.291667,-4.7625 z" />
</svg>
