<?xml version="1.0" encoding="UTF-8" standalone="no"?>
<!-- Created with Inkscape (http://www.inkscape.org/) -->

<svg
   width="240"
   height="179.50813"
   viewBox="0 0 63.499998 47.494861"
   version="1.1"
   id="svg5"
   xmlns="http://www.w3.org/2000/svg"
   xmlns:svg="http://www.w3.org/2000/svg">
  <defs
     id="defs2" />
  <g
     id="layer1"
     transform="translate(-8.0945547,-13.149283)" />
  <path
     id="rect992"
     style="opacity:1;fill:#ffb800;fill-opacity:1;stroke-width:27.1224;stop-color:#000000"
     d="M 9.2994324,1.2968636 C 7.4337844,3.1625117 7.6006275,6.3330484 9.6735696,8.4059902 L 25.014751,23.747173 9.6735696,39.088355 c -2.0729429,2.072942 -2.2397852,5.243997 -0.3741372,7.109642 1.8656486,1.865652 5.0361846,1.698805 7.1091266,-0.374136 L 31.74974,30.482679 47.090924,45.823861 c 2.072942,2.072941 5.243994,2.239788 7.109643,0.374136 1.865648,-1.865645 1.698805,-5.0367 -0.374137,-7.109642 L 38.485245,23.747173 53.82643,8.4059902 C 55.899372,6.3330484 56.066215,3.1625117 54.200567,1.2968636 52.334918,-0.56878436 49.163866,-0.40194099 47.090924,1.671001 L 31.74974,17.012183 16.408559,1.671001 C 14.323843,-0.22408957 11.19139,-0.53602466 9.2994324,1.2968636 Z" />
</svg>
