<?xml version="1.0" encoding="UTF-8" standalone="no"?>
<!-- Created with Inkscape (http://www.inkscape.org/) -->

<svg
   width="31.750004mm"
   height="30.966446mm"
   viewBox="0 0 31.750004 30.966446"
   version="1.1"
   id="svg1312"
   xmlns="http://www.w3.org/2000/svg"
   xmlnsSvg="http://www.w3.org/2000/svg">
  <defs
     id="defs1309" />
  <g
     id="layer1"
     transform="translate(-7.091043,-6.1919959)">
    <path
       d="m 22.964642,6.1919959 c -8.766148,0 -15.873599,7.1074501 -15.873599,15.8755481 0,7.013892 4.548262,12.96357 10.856575,15.063742 0.794264,0.145198 1.083708,-0.344993 1.083708,-0.766002 0,-0.376181 -0.01365,-1.375103 -0.02144,-2.699527 -4.415722,0.958964 -5.347399,-2.128435 -5.347399,-2.128435 -0.722147,-1.833144 -1.762975,-2.321395 -1.762975,-2.321395 -1.441371,-0.98528 0.10915,-0.965788 0.10915,-0.965788 1.593402,0.113043 2.431522,1.636283 2.431522,1.636283 1.416032,2.425675 3.715989,1.724969 4.620379,1.319551 0.144234,-1.026209 0.553548,-1.725941 1.007693,-2.122587 -3.524976,-0.400544 -7.23122,-1.762975 -7.23122,-7.846166 0,-1.732764 0.618845,-3.149772 1.634333,-4.259791 -0.163726,-0.401519 -0.708503,-2.015387 0.154956,-4.201319 0,0 1.333195,-0.426857 4.366019,1.627509 1.265951,-0.351813 2.624485,-0.528208 3.974248,-0.534057 1.347813,0.0058 2.706347,0.182244 3.974247,0.534057 3.030873,-2.054366 4.361145,-1.627509 4.361145,-1.627509 0.866384,2.185932 0.321605,3.7998 0.157879,4.201319 1.017438,1.110019 1.632385,2.527027 1.632385,4.259791 0,6.098783 -3.712093,7.440749 -7.248762,7.833497 0.570117,0.490202 1.077861,1.458912 1.077861,2.94024 0,2.121615 -0.01961,3.833911 -0.01961,4.354327 0,0.424907 0.285546,0.919007 1.091507,0.764051 6.303439,-2.10407 10.847803,-8.049847 10.847803,-15.061791 0,-8.768098 -7.108425,-15.8755481 -15.876522,-15.8755481"
       style="fill:#1b1817;fill-opacity:1;fill-rule:evenodd;stroke:none;stroke-width:0.974558"
       id="path844" />
  </g>
</svg>
