<?xml version="1.0" encoding="UTF-8" standalone="no"?>
<!-- Created with Inkscape (http://www.inkscape.org/) -->

<svg
   width="240"
   height="236.47736"
   viewBox="0 0 63.500003 62.56797"
   version="1.1"
   id="svg1021"
   xmlns="http://www.w3.org/2000/svg"
   xmlnsSvg="http://www.w3.org/2000/svg">
  <defs
     id="defs1018" />
  <g
     id="layer1"
     style="display:inline"
     transform="translate(43.88498,39.726488)">
    <path
       id="path1229"
       style="fill:#ffb800;fill-opacity:1;stroke-width:0.0554913;stop-color:#000000"
       d="m -12.137228,-39.726488 c -4.450454,4.94e-4 -6.316302,10.339529 -5.150041,12.500089 1.166258,2.160559 9.1317012,2.165098 10.3029459,0 1.1712448,-2.165097 -0.7024586,-12.500543 -5.1529049,-12.500089 z m 20.0803473,8.177058 c -3.8420568,0.03072 -9.4360576,4.216124 -9.9963215,6.090706 -0.7030784,2.352416 4.9261258,7.988041 7.2852769,7.285278 2.359151,-0.702761 8.3424583,-9.335898 5.1951983,-12.482518 -0.6392962,-0.639153 -1.504806,-0.901298 -2.4841537,-0.893466 z M -32.161438,-31.534 c -0.979348,-0.0078 -1.844858,0.254313 -2.484153,0.893466 -3.14726,3.14662 2.836047,11.779757 5.195197,12.482518 2.359159,0.702762 7.988355,-4.932856 7.285279,-7.285279 -0.560265,-1.874583 -6.154264,-6.059981 -9.996323,-6.090705 z m 20.026459,8.18472 a 15.4298,14.906755 0 0 0 -15.4298,14.9067573 15.4298,14.906755 0 0 0 15.4298,14.9067559 A 15.4298,14.906755 0 0 0 3.2948214,-8.4425267 15.4298,14.906755 0 0 0 -12.134979,-23.349284 Z m -21.207547,9.316978 c -3.719918,-0.03725 -10.542822,1.877712 -10.542454,5.4936987 4.94e-4,4.4504564 10.33953,6.3162514 12.500089,5.1499939 2.16056,-1.1662601 2.165099,-9.1316536 0,-10.3028966 -0.405956,-0.219608 -1.099193,-0.3322 -1.957635,-0.340796 z m 42.4150936,0.09838 c -0.8584435,0.0086 -1.5516782,0.121136 -1.9576363,0.340744 -2.1650991,1.171244 -2.160559,9.1366872 0,10.3029473 2.1605591,1.1662575 12.4995947,-0.6995871 12.5000917,-5.1500436 3.66e-4,-3.6159867 -6.822537,-5.5308977 -10.5424554,-5.4936477 z M -28.933326,1.1462388 c -0.17065,-0.00325 -0.330904,0.015942 -0.478351,0.059865 -2.35915,0.7027594 -8.342457,9.3358972 -5.195196,12.4825172 3.147297,3.146599 11.7774,-2.844826 12.480475,-5.1972403 0.659135,-2.2053892 -4.24718,-7.296436 -6.806928,-7.3451419 z m 33.6106392,0 C 2.1175643,1.1949447 -2.7887512,6.2859392 -2.1296163,8.491331 -1.4265405,10.843745 7.2035611,16.83522 10.350859,13.688621 13.498119,10.542001 7.5147619,1.9088135 5.1556108,1.2060515 5.0081647,1.1621289 4.8479616,1.1429907 4.6773132,1.1462388 Z M -12.137636,8.7192945 c -2.283545,5.754e-4 -4.566504,0.5418214 -5.149633,1.6221005 -1.166261,2.160559 0.699587,12.499595 5.150041,12.500089 4.4504463,4.45e-4 6.3241497,-10.334992 5.1529049,-12.500089 -0.585621,-1.0825491 -2.8697676,-1.622668 -5.1533129,-1.6221005 z" />
  </g>
</svg>
