<?xml version="1.0" encoding="UTF-8" standalone="no"?>
<!-- Created with Inkscape (http://www.inkscape.org/) -->

<svg
   width="240"
   height="240"
   viewBox="0 0 63.499999 63.500002"
   version="1.1"
   id="svg2113"
   xmlns="http://www.w3.org/2000/svg"
   xmlnsSvg="http://www.w3.org/2000/svg">
  <defs
     id="defs2110" />
  <g
     id="layer1">
    <path
       id="path2231"
       style="opacity:1;fill:#ffb800;fill-opacity:1;stroke-width:33.3158;stop-color:#000000"
       d="M 31.75,-5.0048832e-7 C 14.214959,-2.3815309e-7 -2.4912735e-7,14.214959 -5.2500003e-7,31.75 -5.2500003e-7,49.285041 14.214959,63.500001 31.75,63.500001 49.285041,63.500001 63.500001,49.285041 63.500001,31.75 63.500001,14.214959 49.285041,-5.0048832e-7 31.75,-5.0048832e-7 Z" />
    <path
       id="rect2372"
       style="opacity:1;fill:#282828;fill-opacity:1;stroke-width:14.8783;stop-color:#000000"
       d="m 31.741991,23.799963 c -0.405795,0 -0.811471,0.155697 -1.122412,0.466638 L 17.897356,36.988823 c -0.621882,0.621882 -0.621882,1.622941 0,2.244823 0.621885,0.621884 1.62346,0.621884 2.245342,0 l 11.607561,-11.60756 11.60756,11.60756 c 0.621883,0.621884 1.622942,0.621884 2.244825,0 0.621883,-0.621882 0.621883,-1.622941 0,-2.244823 L 32.880939,24.266601 c -0.313041,-0.31304 -0.722149,-0.468751 -1.13068,-0.466638 -0.0028,-1.4e-5 -0.0055,0 -0.0083,0 z" />
  </g>
</svg>
