<?xml version="1.0" encoding="UTF-8" standalone="no"?>
<!-- Created with Inkscape (http://www.inkscape.org/) -->

<svg
   width="62.917961mm"
   height="63.500004mm"
   viewBox="0 0 62.917961 63.500004"
   version="1.1"
   id="svg1910"
   xmlns="http://www.w3.org/2000/svg"
   xmlns:svg="http://www.w3.org/2000/svg">
  <defs
     id="defs1907" />
  <g
     id="layer1"
     transform="translate(-129.53167,-96.279206)">
    <path
       id="path37043"
       style="fill:#2aabee;fill-opacity:1;stroke-width:2.11666"
       d="m 148.07157,96.279206 a 18.539883,18.478498 0 0 0 -18.5399,18.478504 18.539883,18.478498 0 0 0 2.41648,9.1213 29.364516,29.26715 0 0 0 -0.31887,4.28774 29.364516,29.26715 0 0 0 29.36454,29.26717 29.364516,29.26715 0 0 0 3.50167,-0.21108 18.546233,18.484849 0 0 0 9.40793,2.55637 18.546233,18.484849 0 0 0 18.54621,-18.48483 18.546233,18.484849 0 0 0 -2.37914,-9.05718 29.364516,29.26715 0 0 0 0.28786,-4.07045 29.364516,29.26715 0 0 0 -29.36453,-29.267053 29.364516,29.26715 0 0 0 -3.12936,0.167805 18.539883,18.478498 0 0 0 -9.79289,-2.788296 z" />
    <path
       d="m 153.11904,127.44567 a 9.2244332,9.2244332 0 0 1 -2.89349,-3.05223 8.4370332,8.4370332 0 0 1 -0.9906,-4.21852 7.5818999,7.5818999 0 0 1 1.78647,-5.1054 10.752667,10.752667 0 0 1 4.65667,-3.1115 17.981083,17.981083 0 0 1 6.09599,-1.02658 23.672799,23.672799 0 0 1 4.05554,0.31115 14.6431,14.6431 0 0 1 2.81305,0.72602 5.4525333,5.4525333 0 0 1 2.20133,1.40546 2.8448,2.8448 0 0 1 0.67945,1.89019 2.7389666,2.7389666 0 0 1 -0.71543,1.97061 2.3791333,2.3791333 0 0 1 -1.79705,0.7493 3.2363833,3.2363833 0 0 1 -1.33562,-0.30056 24.201966,24.201966 0 0 0 -3.18135,-1.16417 11.546417,11.546417 0 0 0 -3.06493,-0.381 6.9955832,6.9955832 0 0 0 -3.83963,0.98213 3.19405,3.19405 0 0 0 -1.53247,2.86809 2.8850166,2.8850166 0 0 0 0.79587,2.01718 7.2516999,7.2516999 0 0 0 2.14418,1.53458 q 1.34832,0.66887 4.02166,1.77377 a 4.1698333,4.1698333 0 0 1 0.57574,0.23072 28.56865,28.56865 0 0 1 4.9784,2.55905 10.037233,10.037233 0 0 1 3.06493,3.14536 8.2973332,8.2973332 0 0 1 1.10702,4.3688 8.7862832,8.7862832 0 0 1 -1.53247,5.26627 9.1101332,9.1101332 0 0 1 -4.28625,3.18135 18.069983,18.069983 0 0 1 -6.44313,1.04987 20.298833,20.298833 0 0 1 -8.78205,-1.66159 4.7794333,4.7794333 0 0 1 -1.80763,-1.40546 3.1601833,3.1601833 0 0 1 -0.58844,-1.91347 2.4997833,2.4997833 0 0 1 0.77259,-1.94733 2.8469166,2.8469166 0 0 1 1.99178,-0.70274 5.0948166,5.0948166 0 0 1 2.32833,0.59902 q 1.33774,0.66887 2.11032,1.0033 a 10.600267,10.600267 0 0 0 1.82033,0.57573 10.414,10.414 0 0 0 2.33892,0.2413 6.2441666,6.2441666 0 0 0 3.93065,-1.04775 3.46075,3.46075 0 0 0 1.32503,-2.8702 3.048,3.048 0 0 0 -0.82973,-2.0955 8.8201499,8.8201499 0 0 0 -2.44264,-1.778 q -1.61501,-0.8509 -4.54236,-2.07433 a 28.132616,28.132616 0 0 1 -4.98898,-2.59292"
       fill="#ffffff"
       fill-rule="evenodd"
       id="path37061"
       style="stroke-width:2.11667" />
  </g>
</svg>
