<?xml version="1.0" encoding="UTF-8" standalone="no"?>
<svg
   viewBox="0 0 240 240"
   version="1.1"
   id="svg36196"
   xmlns="http://www.w3.org/2000/svg"
   xmlns:svg="http://www.w3.org/2000/svg">
  <defs
     id="defs36188">
    <linearGradient
       id="a"
       x1="46"
       x2="29"
       y1="11"
       y2="52"
       gradientUnits="userSpaceOnUse">
      <stop
         stop-color="#2aabee"
         offset="0"
         id="stop36183" />
      <stop
         stop-color="#229ed9"
         offset="1"
         id="stop36185" />
    </linearGradient>
  </defs>
  <g
     transform="scale(3.47)"
     id="g36194">
    <circle
       cy="34.599998"
       cx="34.599998"
       fill="url(#a)"
       id="circle36190"
       r="34.599998"
       style="fill:#2aabee;fill-opacity:1" />
    <path
       d="m 47.8,20.5 c 0,0 3.6,-1.4 3.3,2 -0.1,1.4 -1,6.3 -1.7,11.6 L 47,49.8 c 0,0 -0.2,2.3 -2,2.7 -1.8,0.4 -4.5,-1.4 -5,-1.8 -0.4,-0.3 -7.5,-4.8 -10,-7 -0.7,-0.6 -1.5,-1.8 0.1,-3.2 l 10.5,-10 c 1.2,-1.2 2.4,-4 -2.6,-0.6 l -14,9.5 c 0,0 -1.6,1 -4.6,0.1 l -6.5,-2 c 0,0 -2.4,-1.5 1.7,-3 10,-4.7 22.3,-9.5 33.2,-14 z"
       fill="#ffffff"
       id="path36192" />
  </g>
</svg>
